# Blender v2.79 (sub 0) OBJ File: 'passenger_male.blend'
# www.blender.org
mtllib passenger_male.mtl
o Cylinder_Cylinder.002
v -0.000000 0.000000 -0.865144
v -0.000000 2.000000 -0.400000
v 0.611749 0.000000 -0.611749
v 0.282843 2.000000 -0.282843
v 0.865144 0.000000 0.000000
v 0.400000 2.000000 0.000000
v 0.611749 0.000000 0.611749
v 0.282843 2.000000 0.282843
v -0.000000 0.000000 0.865144
v -0.000000 2.000000 0.400000
v -0.611749 0.000000 0.611749
v -0.282843 2.000000 0.282843
v -0.865144 0.000000 -0.000000
v -0.400000 2.000000 -0.000000
v -0.611749 0.000000 -0.611749
v -0.282843 2.000000 -0.282843
v -0.000000 1.400000 -0.593264
v 0.419501 1.400000 -0.419501
v 0.593264 1.400000 0.000000
v 0.419501 1.400000 0.419501
v -0.000000 1.400000 0.593264
v -0.419501 1.400000 0.419501
v -0.593264 1.400000 -0.000000
v -0.419501 1.400000 -0.419501
v 0.002458 2.292256 -0.550454
v 0.002458 2.739194 -0.550454
v -0.007255 2.928643 -0.482837
v -0.009720 2.967846 -0.275484
v -0.379028 2.292256 -0.392438
v -0.378545 2.606079 -0.391955
v -0.379028 2.739194 -0.392438
v -0.357508 2.928643 -0.337757
v -0.167607 2.980644 -0.210975
v -0.536362 2.606079 -0.010952
v -0.537045 2.739194 -0.010952
v -0.502588 2.928643 0.012497
v -0.232807 3.005244 -0.054779
v -0.289519 3.061144 0.281025
v -0.167129 3.027236 0.101605
v 0.002458 3.070279 0.414842
v -0.009045 3.033738 0.166570
v 0.383461 2.606079 0.370052
v 0.383944 2.739194 0.370534
v 0.342999 2.928643 0.362751
v 0.148842 3.020940 0.102060
v 0.541961 2.292256 -0.010952
v 0.541278 2.606079 -0.010952
v 0.541961 2.739194 -0.010952
v 0.488079 2.928643 0.012497
v 0.214042 2.996340 -0.054135
v 0.002458 2.515725 -0.594905
v 0.383944 2.292256 -0.392438
v 0.415376 2.515725 -0.423869
v 0.383944 2.739194 -0.392438
v 0.342999 2.928643 -0.337757
v 0.148364 2.974348 -0.210519
v 0.002458 3.011888 -0.088208
v 0.333949 2.203836 -0.349862
v 0.294906 2.010904 -0.294906
v 0.159602 1.883049 -0.159602
v 0.562731 2.427964 0.027121
v 0.514160 2.204627 0.015230
v 0.417060 2.010904 -0.000000
v 0.225711 1.883049 -0.000000
v -0.000000 1.838152 -0.000000
v 0.294906 2.845024 0.294906
v 0.344486 2.653675 0.368402
v 0.357423 2.427964 0.392358
v 0.354866 2.202253 0.372701
v 0.294906 2.010904 0.294906
v 0.159602 1.883049 0.159602
v 0.000000 2.845024 0.417060
v 0.000000 2.653675 0.544915
v 0.000000 2.427964 0.589812
v 0.000000 2.100913 0.589624
v 0.000000 2.010904 0.417060
v 0.000000 1.883049 0.225711
v -0.294906 2.845024 0.294906
v -0.385313 2.653675 0.385313
v -0.417060 2.427964 0.417060
v -0.385313 2.100913 0.430022
v -0.294906 2.010904 0.294906
v -0.159602 1.883049 0.159602
v -0.417060 2.845024 -0.000000
v -0.504088 2.653675 0.016911
v -0.530175 2.427964 0.024702
v -0.514468 2.202253 0.012612
v -0.417060 2.010904 -0.000000
v -0.225711 1.883049 -0.000000
v -0.389979 2.427964 -0.367504
v -0.385313 2.202253 -0.349891
v -0.294906 2.010904 -0.294906
v -0.159602 1.883049 -0.159602
v -0.000000 2.202253 -0.484932
v -0.000000 2.010904 -0.417060
v -0.000000 1.883049 -0.225711
vt 0.405481 0.154756
vt 0.379535 0.179817
vt 0.366123 0.168599
vt 0.385697 0.139462
vt 0.350840 0.160322
vt 0.364186 0.128400
vt 0.334331 0.155091
vt 0.341423 0.121507
vt 0.317190 0.152990
vt 0.317983 0.118844
vt 0.300005 0.154055
vt 0.294506 0.120460
vt 0.283372 0.158272
vt 0.271652 0.126354
vt 0.344903 0.074969
vt 0.325654 0.094218
vt 0.298432 0.094218
vt 0.279183 0.074969
vt 0.279183 0.047747
vt 0.298432 0.028498
vt 0.325654 0.028498
vt 0.344903 0.047747
vt 0.267917 0.165591
vt 0.250039 0.136498
vt 0.254459 0.175915
vt 0.230095 0.150890
vt 0.178504 0.028498
vt 0.237381 0.028498
vt 0.279014 0.070131
vt 0.279014 0.129008
vt 0.237381 0.170641
vt 0.178504 0.170641
vt 0.136871 0.129008
vt 0.136871 0.070131
vt 0.213596 0.068094
vt 0.182352 0.088114
vt 0.247647 0.053547
vt 0.283576 0.045035
vt 0.320355 0.042847
vt 0.356904 0.047029
vt 0.392157 0.057383
vt 0.425130 0.073444
vt 0.454822 0.094242
vt 0.236517 0.895266
vt 0.249105 0.879666
vt 0.271964 0.900055
vt 0.268583 0.913782
vt 0.282113 0.888875
vt 0.292694 0.878872
vt 0.292975 0.891797
vt 0.269163 0.852684
vt 0.279375 0.865856
vt 0.275091 0.878478
vt 0.228625 0.907371
vt 0.265161 0.924523
vt 0.296918 0.916593
vt 0.299772 0.932520
vt 0.326780 0.875220
vt 0.307381 0.876768
vt 0.303535 0.864721
vt 0.325980 0.842292
vt 0.291022 0.860204
vt 0.291542 0.842271
vt 0.351196 0.887797
vt 0.340404 0.882416
vt 0.347964 0.842592
vt 0.364253 0.844491
vt 0.294488 0.904179
vt 0.314234 0.895176
vt 0.302711 0.887039
vt 0.321609 0.906033
vt 0.263930 0.956674
vt 0.303941 0.951700
vt 0.341179 0.937697
vt 0.330732 0.919639
vt 0.377249 0.912085
vt 0.284592 0.511609
vt 0.278603 0.498009
vt 0.290462 0.497977
vt 0.272721 0.481903
vt 0.262590 0.462010
vt 0.308195 0.460841
vt 0.298322 0.483245
vt 0.315247 0.502702
vt 0.298444 0.506573
vt 0.339761 0.501439
vt 0.309750 0.525973
vt 0.297344 0.517736
vt 0.364744 0.514941
vt 0.335122 0.557369
vt 0.321678 0.538132
vt 0.337551 0.584487
vt 0.335453 0.609425
vt 0.297573 0.609425
vt 0.298583 0.585000
vt 0.289301 0.524271
vt 0.294619 0.547031
vt 0.292996 0.536592
vt 0.297675 0.566711
vt 0.359066 0.838535
vt 0.386939 0.845821
vt 0.279619 0.524085
vt 0.274188 0.546426
vt 0.274949 0.536379
vt 0.263628 0.582124
vt 0.266944 0.564721
vt 0.261468 0.942853
vt 0.216283 0.923736
vt 0.261300 0.604198
vt 0.369792 0.897803
vt 0.346853 0.949313
vt 0.306459 0.963396
vt 0.259068 0.524175
vt 0.272062 0.517552
vt 0.232557 0.552148
vt 0.246757 0.535034
vt 0.226686 0.600121
vt 0.227452 0.577107
vt 0.332474 0.828920
vt 0.255012 0.500950
vt 0.270906 0.506734
vt 0.207145 0.510420
vt 0.231547 0.499477
vt 0.235863 0.876209
vt 0.249788 0.837077
vt 0.288426 0.813303
vt 0.386939 0.918157
vt 0.259599 0.966836
vt 0.227106 0.900233
vn 0.3668 0.2852 -0.8855
vn 0.8855 0.2852 -0.3668
vn 0.8855 0.2852 0.3668
vn 0.3668 0.2852 0.8855
vn -0.3668 0.2852 0.8855
vn -0.8855 0.2852 0.3668
vn 0.0000 1.0000 0.0000
vn -0.8855 0.2852 -0.3668
vn -0.3668 0.2852 -0.8855
vn 0.0000 -1.0000 0.0000
vn -0.3767 0.1766 -0.9094
vn -0.9094 0.1766 -0.3767
vn -0.9094 0.1766 0.3767
vn -0.3767 0.1766 0.9094
vn 0.3767 0.1766 0.9094
vn 0.9094 0.1766 0.3767
vn 0.9094 0.1766 -0.3767
vn 0.3767 0.1766 -0.9094
vn -0.9032 0.2106 -0.3741
vn -0.0143 0.9736 -0.2280
vn -0.2279 0.9535 -0.1972
vn -0.9239 -0.0047 -0.3827
vn -0.0451 0.9917 -0.1205
vn -0.2484 0.9570 -0.1496
vn -0.0529 0.9828 -0.1769
vn -0.4145 0.1108 -0.9033
vn 0.2789 0.9578 0.0693
vn 0.2930 0.9560 -0.0137
vn 0.9239 -0.0047 0.3827
vn 0.0467 0.9954 -0.0833
vn 0.0916 0.9888 -0.1175
vn -0.3655 0.2962 -0.8824
vn 0.9032 0.2106 0.3741
vn 0.2169 0.9672 -0.1322
vn 0.8824 0.2962 -0.3655
vn -0.4338 -0.0731 -0.8980
vn 0.9418 -0.0731 -0.3283
vn 0.1009 0.9785 -0.1800
vn 0.3764 -0.1807 -0.9087
vn 0.9318 0.1108 -0.3456
vn 0.0723 0.9761 -0.2051
vn 0.3613 0.3298 -0.8722
vn -0.0690 0.9716 -0.2265
vn -0.0058 0.9963 -0.0857
vn 0.3764 0.1807 -0.9087
vn 0.0337 0.9875 -0.1539
vn 0.0554 0.9711 -0.2320
vn 0.0805 -0.9776 -0.1945
vn 0.3597 -0.3170 -0.8775
vn 0.2243 -0.8103 -0.5414
vn 0.5414 -0.8103 -0.2243
vn 0.1945 -0.9776 -0.0805
vn 0.8547 -0.3411 -0.3912
vn 0.5414 -0.8103 0.2243
vn 0.8852 -0.1321 0.4461
vn 0.1945 -0.9776 0.0805
vn 0.8315 -0.4254 0.3572
vn 0.3737 0.4693 0.8000
vn 0.0805 -0.9776 0.1945
vn 0.4288 -0.6498 0.6276
vn 0.4651 0.1465 0.8730
vn 0.0391 0.0666 0.9970
vn 0.2243 -0.8103 0.5414
vn 0.5061 -0.0333 0.8618
vn -0.0805 -0.9776 0.1945
vn -0.1881 -0.8708 0.4542
vn -0.3764 0.1807 0.9087
vn -0.9321 -0.0469 -0.3592
vn -0.2243 -0.8103 0.5414
vn -0.3827 -0.0005 0.9239
vn -0.3256 0.5253 0.7862
vn 0.8974 0.0625 0.4367
vn 0.3157 -0.5578 -0.7676
vn -0.5414 -0.8103 0.2243
vn -0.9576 -0.0818 0.2763
vn -0.8300 0.4693 0.3015
vn -0.6388 0.0124 0.7693
vn -0.1945 -0.9776 0.0805
vn -0.7699 -0.6109 0.1847
vn -0.9462 0.1465 0.2884
vn -0.5414 -0.8103 -0.2243
vn -0.9408 -0.0466 -0.3358
vn -0.8160 -0.2157 0.5362
vn -0.4000 0.0405 0.9156
vn -0.1945 -0.9776 -0.0805
vn -0.8361 -0.4457 -0.3196
vn 0.7937 -0.4910 -0.3591
vn -0.3137 -0.4775 -0.8207
vn 0.2078 -0.2357 0.9493
vn -0.0805 -0.9776 -0.1945
vn -0.3302 -0.3583 -0.8733
vn -0.7055 0.0653 0.7057
vn 0.9676 -0.0810 -0.2393
vn -0.2243 -0.8103 -0.5414
vn -0.9471 -0.0175 -0.3206
vn -0.1053 0.0165 0.9943
usemtl None
s off
f 17/1/1 2/2/1 4/3/1 18/4/1
f 18/4/2 4/3/2 6/5/2 19/6/2
f 19/6/3 6/5/3 8/7/3 20/8/3
f 20/8/4 8/7/4 10/9/4 21/10/4
f 21/10/5 10/9/5 12/11/5 22/12/5
f 22/12/6 12/11/6 14/13/6 23/14/6
f 4/15/7 2/16/7 16/17/7 14/18/7 12/19/7 10/20/7 8/21/7 6/22/7
f 23/14/8 14/13/8 16/23/8 24/24/8
f 24/24/9 16/23/9 2/25/9 17/26/9
f 1/27/10 3/28/10 5/29/10 7/30/10 9/31/10 11/32/10 13/33/10 15/34/10
f 15/35/11 24/24/11 17/26/11 1/36/11
f 13/37/12 23/14/12 24/24/12 15/35/12
f 11/38/13 22/12/13 23/14/13 13/37/13
f 9/39/14 21/10/14 22/12/14 11/38/14
f 7/40/15 20/8/15 21/10/15 9/39/15
f 5/41/16 19/6/16 20/8/16 7/40/16
f 3/42/17 18/4/17 19/6/17 5/41/17
f 1/43/18 17/1/18 18/4/18 3/42/18
f 35/44/19 36/45/19 32/46/19 31/47/19
f 33/48/20 57/49/20 28/50/20
f 38/51/21 39/52/21 37/53/21 36/45/21
f 34/54/22 35/44/22 31/47/22 30/55/22
f 39/52/23 57/49/23 37/53/23
f 36/45/24 37/53/24 33/48/24 32/46/24
f 37/53/25 57/49/25 33/48/25
f 30/55/26 31/47/26 26/56/26 51/57/26
f 49/58/27 50/59/27 45/60/27 44/61/27
f 44/61/28 45/60/28 41/62/28 40/63/28
f 47/64/29 48/65/29 43/66/29 42/67/29
f 45/60/30 57/49/30 41/62/30
f 50/59/31 57/49/31 45/60/31
f 31/47/32 32/46/32 27/68/32 26/56/32
f 48/65/33 49/58/33 44/61/33 43/66/33
f 55/69/34 56/70/34 50/59/34 49/58/34
f 54/71/35 55/69/35 49/58/35 48/65/35
f 29/72/36 30/55/36 51/57/36 25/73/36
f 52/74/37 53/75/37 47/64/37 46/76/37
f 56/70/38 57/49/38 50/59/38
f 25/73/39 51/57/39 53/75/39 52/74/39
f 53/75/40 54/71/40 48/65/40 47/64/40
f 27/68/41 28/50/41 56/70/41 55/69/41
f 26/56/42 27/68/42 55/69/42 54/71/42
f 32/46/43 33/48/43 28/50/43 27/68/43
f 41/62/44 57/49/44 39/52/44
f 51/57/45 26/56/45 54/71/45 53/75/45
f 40/63/46 41/62/46 39/52/46 38/51/46
f 28/50/47 57/49/47 56/70/47
f 65/77/48 96/78/48 60/79/48
f 95/80/49 94/81/49 58/82/49 59/83/49
f 96/78/50 95/80/50 59/83/50 60/79/50
f 60/79/51 59/83/51 63/84/51 64/85/51
f 65/77/52 60/79/52 64/85/52
f 59/83/53 58/82/53 62/86/53 63/84/53
f 64/85/54 63/84/54 70/87/54 71/88/54
f 62/86/55 61/89/55 68/90/55 69/91/55
f 65/77/56 64/85/56 71/88/56
f 63/84/57 62/86/57 69/91/57 70/87/57
f 67/92/58 66/93/58 72/94/58 73/95/58
f 65/77/59 71/88/59 77/96/59
f 70/87/60 69/91/60 75/97/60 76/98/60
f 68/90/61 67/92/61 73/95/61 74/99/61
f 67/100/62 68/101/62 42/67/62 43/66/62
f 71/88/63 70/87/63 76/98/63 77/96/63
f 69/91/64 68/90/64 74/99/64 75/97/64
f 65/77/65 77/96/65 83/102/65
f 76/98/66 75/97/66 81/103/66 82/104/66
f 74/99/67 73/95/67 79/105/67 80/106/67
f 90/107/68 86/108/68 34/54/68 30/55/68
f 77/96/69 76/98/69 82/104/69 83/102/69
f 75/97/70 74/99/70 80/106/70 81/103/70
f 73/95/71 72/94/71 78/109/71 79/105/71
f 68/101/72 61/110/72 47/64/72 42/67/72
f 58/111/73 94/112/73 25/73/73 52/74/73
f 83/102/74 82/104/74 88/113/74 89/114/74
f 81/103/75 80/106/75 86/115/75 87/116/75
f 79/105/76 78/109/76 84/117/76 85/118/76
f 66/119/77 67/100/77 43/66/77 44/61/77
f 65/77/78 83/102/78 89/114/78
f 82/104/79 81/103/79 87/116/79 88/113/79
f 80/106/80 79/105/80 85/118/80 86/115/80
f 89/114/81 88/113/81 92/120/81 93/121/81
f 87/116/82 86/115/82 90/122/82 91/123/82
f 84/124/83 78/125/83 38/51/83 36/45/83
f 78/125/84 72/126/84 40/63/84 38/51/84
f 65/77/85 89/114/85 93/121/85
f 88/113/86 87/116/86 91/123/86 92/120/86
f 62/127/87 58/111/87 52/74/87 46/76/87
f 94/112/88 91/128/88 29/72/88 25/73/88
f 72/126/89 66/119/89 44/61/89 40/63/89
f 65/77/90 93/121/90 96/78/90
f 92/120/91 91/123/91 94/81/91 95/80/91
f 86/108/92 85/129/92 35/44/92 34/54/92
f 61/110/93 62/127/93 46/76/93 47/64/93
f 93/121/94 92/120/94 95/80/94 96/78/94
f 91/128/95 90/107/95 30/55/95 29/72/95
f 85/129/96 84/124/96 36/45/96 35/44/96
