# Blender v2.79 (sub 0) OBJ File: 'road_rise.blend'
# www.blender.org
mtllib road_rise_lower.mtl
o Road.001_Cube.005
v -3.000000 0.000000 -2.000000
v 3.000000 2.187378 -2.000000
v 3.000000 2.187377 2.000000
v -3.000000 0.000000 2.000000
v -3.000000 1.000000 -2.000000
v 3.000000 3.386787 -1.999999
v 3.000000 3.386787 2.000000
v -3.000000 1.000000 2.000000
v -3.000000 0.000000 -0.460629
v -3.000000 0.000000 0.473299
v 3.000000 2.187378 -0.460629
v 3.000000 2.187378 0.473299
v -3.000000 1.000000 -0.460629
v -3.000000 1.000000 0.473299
v 3.000000 3.386787 -0.460628
v 3.000000 3.386787 0.473300
v -2.000000 0.000000 -2.000000
v -1.000000 0.000000 -2.000000
v 0.000000 0.169819 -2.000000
v 1.000000 0.632511 -2.000000
v 2.000000 1.368132 -2.000000
v 2.000000 1.368132 2.000000
v 1.000000 0.632510 2.000000
v -0.000000 0.169819 2.000000
v -1.000000 -0.000000 2.000000
v -2.000000 -0.000000 2.000000
v -2.000000 1.000000 -2.000000
v -0.999999 1.092629 -2.000000
v 0.000001 1.227712 -2.000000
v 1.000000 1.774027 -2.000000
v 2.000000 2.490351 -1.999999
v 2.000000 2.490351 2.000000
v 1.000000 1.774027 2.000000
v -0.000000 1.227712 2.000000
v -1.000000 1.092629 2.000000
v -2.000000 1.000000 2.000000
v -2.000000 1.000000 -0.460629
v -1.000000 1.092629 -0.460629
v 0.000000 1.227712 -0.460628
v 1.000000 1.774027 -0.460628
v 2.000000 2.490351 -0.460628
v -2.000000 1.000000 0.473299
v -1.000000 1.092629 0.473299
v 0.000000 1.227712 0.473299
v 1.000000 1.774027 0.473299
v 2.000000 2.490351 0.473299
v 2.000000 1.368132 -0.460629
v 1.000000 0.632510 -0.460629
v 0.000000 0.169819 -0.460629
v -1.000000 0.000000 -0.460629
v -2.000000 0.000000 -0.460629
v 2.000000 1.368132 0.473299
v 1.000000 0.632510 0.473299
v -0.000000 0.169819 0.473299
v -1.000000 0.000000 0.473299
v -2.000000 0.000000 0.473299
vt 0.689734 0.870955
vt 0.625112 0.870955
vt 0.625112 0.794637
vt 0.689734 0.794637
vt 0.692246 0.571990
vt 0.692246 0.648308
vt 0.625112 0.648308
vt 0.625112 0.571990
vt 0.692246 0.682316
vt 0.692246 0.759267
vt 0.625112 0.759267
vt 0.625112 0.682316
vt 0.129746 0.898531
vt 0.129746 0.945217
vt 0.062612 0.945217
vt 0.062612 0.898531
vt 0.689734 0.994592
vt 0.625112 0.994592
vt 0.625112 0.917641
vt 0.689734 0.917641
vt 0.957554 0.917641
vt 0.907565 0.917641
vt 0.907565 0.870955
vt 0.957554 0.870955
vt 0.857576 0.917641
vt 0.857576 0.870955
vt 0.806872 0.917641
vt 0.806872 0.870955
vt 0.751791 0.917641
vt 0.751791 0.870955
vt 0.957554 0.994593
vt 0.907565 0.994593
vt 0.857576 0.994593
vt 0.806872 0.994592
vt 0.751791 0.994592
vt 0.398833 0.898531
vt 0.398833 0.945217
vt 0.348844 0.945217
vt 0.348844 0.898531
vt 0.298642 0.945217
vt 0.298642 0.898531
vt 0.248199 0.945217
vt 0.248199 0.898531
vt 0.191236 0.945217
vt 0.191236 0.898531
vt 0.961333 0.682316
vt 0.961333 0.759267
vt 0.911344 0.759267
vt 0.911344 0.682316
vt 0.861142 0.759267
vt 0.861142 0.682316
vt 0.810699 0.759267
vt 0.810699 0.682316
vt 0.753736 0.759267
vt 0.753736 0.682316
vt 0.961333 0.571990
vt 0.961333 0.648308
vt 0.911344 0.648308
vt 0.911344 0.571990
vt 0.861142 0.648308
vt 0.861141 0.571990
vt 0.810699 0.648308
vt 0.810699 0.571990
vt 0.753736 0.648308
vt 0.753736 0.571990
vt 0.907565 0.794637
vt 0.957554 0.794637
vt 0.857576 0.794637
vt 0.806872 0.794637
vt 0.751791 0.794637
vt 0.250056 0.068503
vt 0.250056 0.124602
vt 0.200067 0.169414
vt 0.200067 0.109457
vt 0.076430 0.109457
vt 0.076430 0.169414
vt 0.000112 0.169414
vt 0.000112 0.109457
vt 0.749944 0.000112
vt 0.749944 0.050100
vt 0.699955 0.050100
vt 0.699955 0.000112
vt 0.623637 0.050101
vt 0.623637 0.000112
vt 0.500000 0.050101
vt 0.500000 0.000112
vt 0.576951 0.000112
vt 0.576951 0.050101
vt 0.123116 0.169414
vt 0.123116 0.109457
vt 0.999888 0.109456
vt 0.999888 0.169413
vt 0.949900 0.124601
vt 0.949900 0.068503
vt 0.899911 0.088793
vt 0.899911 0.031730
vt 0.849922 0.061483
vt 0.849922 0.008601
vt 0.799933 0.054731
vt 0.799933 0.000112
vt 0.450011 0.050101
vt 0.450011 0.000112
vt 0.400022 0.054731
vt 0.400022 0.000112
vt 0.350033 0.061484
vt 0.350033 0.008601
vt 0.300045 0.088794
vt 0.300045 0.031731
vn 0.6337 -0.7736 0.0000
vn -0.6675 0.7446 0.0000
vn -0.0000 -1.0000 -0.0000
vn 0.1674 -0.9859 0.0000
vn 0.4199 -0.9076 0.0000
vn 0.5926 -0.8055 0.0000
vn 0.0000 1.0000 0.0000
vn -0.0922 0.9957 0.0000
vn -0.1339 0.9910 0.0000
vn -0.4794 0.8776 -0.0000
vn -0.5823 0.8129 -0.0000
vn 0.4372 -0.5630 -0.7013
vn -0.4346 0.5416 -0.7196
vn 0.3410 0.7636 -0.5483
vn 0.7075 -0.3350 -0.6223
vn 0.9038 -0.4279 0.0000
vn 0.4077 0.9131 0.0000
vn 0.3410 0.7636 0.5483
vn 0.7075 -0.3350 0.6223
vn 0.0000 -0.7071 0.7071
vn -0.0321 0.6956 0.7176
vn -0.5773 0.5773 0.5773
vn -0.5773 -0.5773 0.5773
vn -0.7071 0.7071 0.0000
vn -0.7071 -0.7071 0.0000
vn -0.5773 0.5773 -0.5773
vn -0.5773 -0.5773 -0.5773
vn -0.4346 0.5416 0.7196
vn 0.4372 -0.5630 0.7013
vn -0.3685 0.5867 0.7210
vn 0.3706 -0.6270 0.6852
vn -0.2061 0.6280 0.7504
vn 0.2176 -0.7016 0.6785
vn -0.0794 0.6978 0.7118
vn 0.0609 -0.7225 0.6887
vn -0.0321 0.6956 -0.7176
vn 0.0000 -0.7071 -0.7071
vn -0.0794 0.6978 -0.7118
vn 0.0609 -0.7225 -0.6887
vn -0.2061 0.6280 -0.7504
vn 0.2176 -0.7016 -0.6785
vn -0.3685 0.5867 -0.7210
vn 0.3706 -0.6270 -0.6852
usemtl Material.002
s off
f 52/1/1 12/2/1 3/3/1 22/4/1
f 46/5/2 32/6/2 7/7/2 16/8/2
f 31/9/2 41/10/2 15/11/2 6/12/2
f 41/13/2 46/14/2 16/15/2 15/16/2
f 21/17/1 2/18/1 11/19/1 47/20/1
f 47/20/1 11/19/1 12/2/1 52/1/1
f 9/21/3 51/22/3 56/23/3 10/24/3
f 51/22/3 50/25/3 55/26/3 56/23/3
f 50/25/4 49/27/4 54/28/4 55/26/4
f 49/27/5 48/29/5 53/30/5 54/28/5
f 48/29/6 47/20/6 52/1/6 53/30/6
f 1/31/3 17/32/3 51/22/3 9/21/3
f 17/32/3 18/33/3 50/25/3 51/22/3
f 18/33/4 19/34/4 49/27/4 50/25/4
f 19/34/5 20/35/5 48/29/5 49/27/5
f 20/35/6 21/17/6 47/20/6 48/29/6
f 13/36/7 14/37/7 42/38/7 37/39/7
f 37/39/8 42/38/8 43/40/8 38/41/8
f 38/41/9 43/40/9 44/42/9 39/43/9
f 39/43/10 44/42/10 45/44/10 40/45/10
f 40/45/11 45/44/11 46/14/11 41/13/11
f 5/46/7 13/47/7 37/48/7 27/49/7
f 27/49/8 37/48/8 38/50/8 28/51/8
f 28/51/9 38/50/9 39/52/9 29/53/9
f 29/53/10 39/52/10 40/54/10 30/55/10
f 30/55/11 40/54/11 41/10/11 31/9/11
f 14/56/7 8/57/7 36/58/7 42/59/7
f 42/59/8 36/58/8 35/60/8 43/61/8
f 43/61/9 35/60/9 34/62/9 44/63/9
f 44/63/10 34/62/10 33/64/10 45/65/10
f 45/65/11 33/64/11 32/6/11 46/5/11
f 10/24/3 56/23/3 26/66/3 4/67/3
f 56/23/3 55/26/3 25/68/3 26/66/3
f 55/26/4 54/28/4 24/69/4 25/68/4
f 54/28/5 53/30/5 23/70/5 24/69/5
f 53/30/6 52/1/6 22/4/6 23/70/6
s 1
f 21/71/12 31/72/13 6/73/14 2/74/15
f 12/75/16 16/76/17 7/77/18 3/78/19
f 26/79/20 36/80/21 8/81/22 4/82/23
f 14/83/24 10/84/25 4/82/23 8/81/22
f 5/85/26 1/86/27 9/87/25 13/88/24
f 13/88/24 9/87/25 10/84/25 14/83/24
f 2/74/15 6/73/14 15/89/17 11/90/16
f 11/90/16 15/89/17 16/76/17 12/75/16
f 3/91/19 7/92/18 32/93/28 22/94/29
f 22/94/29 32/93/28 33/95/30 23/96/31
f 23/96/31 33/95/30 34/97/32 24/98/33
f 24/98/33 34/97/32 35/99/34 25/100/35
f 25/100/35 35/99/34 36/80/21 26/79/20
f 1/86/27 5/85/26 27/101/36 17/102/37
f 17/102/37 27/101/36 28/103/38 18/104/39
f 18/104/39 28/103/38 29/105/40 19/106/41
f 19/106/41 29/105/40 30/107/42 20/108/43
f 20/108/43 30/107/42 31/72/13 21/71/12
