# Blender v2.79 (sub 0) OBJ File: 'trainhead.blend'
# www.blender.org
mtllib trainhead.mtl
o Cube
v 2.000000 0.000000 -3.791127
v 2.000000 0.000000 3.698658
v 2.000000 5.814369 -3.192982
v 2.000000 5.900997 -1.325762
v 1.534064 5.703719 0.142499
v 2.436802 4.449744 3.432637
v 1.953627 0.185491 4.109107
v 1.953627 5.628877 -3.603431
v 2.891797 4.407254 -5.109107
v 3.000000 1.500000 4.168925
v 2.831726 4.500000 2.939238
v -0.027598 -0.270689 -4.776121
v 3.000000 1.500000 -4.698658
v 3.000000 4.500000 -4.698658
v 1.953627 0.185491 -4.201576
v -0.027598 4.607204 -5.824697
v -0.027598 6.018687 -4.085015
v 2.891797 1.592746 -5.109107
v 2.891797 1.592746 4.579374
v -0.027598 1.355275 -5.824697
v 3.000000 2.500000 -4.698658
v 3.000000 3.500000 -4.698658
v 3.000000 2.500000 4.168925
v 3.000000 3.500000 4.020420
v -0.027598 2.439252 -5.824697
v -0.027598 3.523228 -5.824697
v 2.891797 2.530915 4.579374
v 2.891797 3.469085 4.430869
v 2.891797 2.530915 -5.109107
v 2.891797 3.469085 -5.109107
v 2.500000 5.250000 -4.079887
v 2.334994 5.250000 0.779641
v -0.027598 5.420186 -5.109759
v 1.886883 5.106739 2.140684
v 2.422712 5.110881 -4.490336
v -0.027598 0.542293 -5.514891
v 2.422712 0.889118 4.430869
v 2.422712 0.889118 -4.840973
v 2.500000 0.750000 -4.430524
v 2.500000 0.750000 4.020420
v 2.578279 4.407254 3.495098
v 1.623616 5.728749 0.039357
v 1.989572 5.110881 2.112068
v 1.886883 4.954093 2.140684
v 2.436802 4.297099 3.432637
v 1.534064 5.551074 0.142499
v 1.030513 -0.327816 -4.149350
v 1.030513 -0.327816 4.086274
v 1.030513 6.065553 -3.491642
v 1.030513 6.160807 -1.438483
v 1.536389 1.423537 5.413417
v 1.355933 4.441863 4.229879
v 1.531042 1.423537 -5.598576
v 1.531042 4.518316 -5.598576
v 0.806445 5.894954 0.062576
v 0.991047 5.861589 -3.942963
v 0.996394 -0.123853 4.751894
v 0.991047 -0.123853 -4.600672
v 1.531042 3.486723 -5.598576
v 1.531042 2.455130 -5.598576
v 1.536389 2.455130 5.512672
v 1.536389 3.486723 5.250124
v 1.261044 5.292011 -4.918187
v 1.261044 0.649842 -5.303741
v 1.266392 0.649842 5.105697
v 1.329952 4.489951 4.126789
v 0.810444 5.864545 0.175213
v 1.013497 5.118510 2.571221
v 1.329952 4.321446 4.126789
v 0.810444 5.773152 0.175213
v -2.000000 0.000000 -3.791127
v -2.000000 0.000000 3.698658
v 0.000000 -0.485009 4.351939
v 0.000000 -0.485009 -4.301882
v -2.000000 5.814369 -3.192982
v -2.000000 5.900997 -1.325762
v 0.000000 6.333098 -1.453359
v 0.000000 6.233007 -3.610775
v -1.534064 5.703719 0.142499
v -2.436802 4.449744 3.432637
v 0.000000 -0.270689 4.927351
v -1.953627 0.185491 4.109107
v 0.000000 1.248115 -5.350458
v 0.000000 4.714364 -5.350458
v -1.953627 5.628877 -3.603431
v -2.891797 4.407254 -5.109107
v -3.000000 1.500000 4.168925
v -2.831726 4.500000 2.939238
v 0.027598 -0.270689 -4.776121
v -3.000000 1.500000 -4.698658
v -3.000000 4.500000 -4.698658
v -1.953627 0.185491 -4.201576
v 0.000000 4.717374 4.530583
v 0.000000 5.930216 0.241382
v 0.027598 4.607204 -5.824697
v 0.027598 6.018687 -4.085015
v -2.891797 1.592746 -5.109107
v -2.891797 1.592746 4.579374
v 0.000000 1.355275 6.160523
v 0.027598 1.355275 -5.824697
v -3.000000 2.500000 -4.698658
v -3.000000 3.500000 -4.698658
v -3.000000 2.500000 4.168925
v -3.000000 3.500000 4.020420
v 0.000000 2.403532 -5.350458
v 0.000000 3.558948 -5.350458
v 0.000000 2.439252 6.379381
v 0.000000 3.523228 5.988938
v 0.027598 2.439252 -5.824697
v 0.027598 3.523228 -5.824697
v -2.891797 2.530915 4.579374
v -2.891797 3.469085 4.430869
v -2.891797 2.530915 -5.109107
v -2.891797 3.469085 -5.109107
v -2.500000 5.250000 -4.079887
v -2.334994 5.250000 0.779641
v 0.000000 5.580926 -4.635520
v 0.027598 5.420186 -5.109759
v -1.886883 5.106739 2.140684
v -2.422712 5.110881 -4.490336
v 0.027598 0.542293 -5.514891
v -2.422712 0.889118 4.430869
v -2.422712 0.889118 -4.840973
v 0.000000 0.542293 5.670476
v -2.500000 0.750000 -4.430524
v -2.500000 0.750000 4.020420
v 0.000000 0.381553 -5.040652
v -2.578279 4.407254 3.495098
v 0.000000 4.438623 4.926940
v -1.623616 5.728749 0.039357
v 0.000000 5.965501 0.123922
v -1.989572 5.110881 2.112068
v -1.886883 4.954093 2.140684
v 0.000000 5.137321 2.518673
v -2.436802 4.297099 3.432637
v 0.000000 4.571212 4.485356
v -1.534064 5.551074 0.142499
v 0.000000 5.827500 0.241382
v -1.030513 -0.327816 -4.149350
v -1.030513 -0.327816 4.086274
v -1.030513 6.065553 -3.491642
v -1.030513 6.160807 -1.438483
v -1.536389 1.423537 5.413417
v -1.355933 4.441863 4.229879
v -1.531042 1.423537 -5.598576
v -1.531042 4.518316 -5.598576
v -0.806445 5.894954 0.062576
v -0.991047 5.861589 -3.942963
v -0.996394 -0.123853 4.751894
v -0.991047 -0.123853 -4.600672
v -1.531042 3.486723 -5.598576
v -1.531042 2.455130 -5.598576
v -1.536389 2.455130 5.512672
v -1.536389 3.486723 5.250124
v -1.261044 5.292011 -4.918187
v -1.261044 0.649842 -5.303741
v -1.266392 0.649842 5.105697
v -1.329952 4.489951 4.126789
v -0.810444 5.864545 0.175213
v -1.013497 5.118510 2.571221
v -1.329952 4.321446 4.126789
v -0.810444 5.773152 0.175213
vt 0.922924 0.330850
vt 0.886526 0.330616
vt 0.900722 0.328678
vt 0.938154 0.325556
vt 0.444480 0.494752
vt 0.418584 0.477968
vt 0.428702 0.470123
vt 0.452432 0.483510
vt 0.128861 0.462651
vt 0.124239 0.490043
vt 0.110895 0.491275
vt 0.115021 0.464436
vt 1.012853 0.331162
vt 0.963066 0.331073
vt 0.971829 0.315819
vt 1.013080 0.308872
vt 0.397045 0.458250
vt 0.368127 0.439080
vt 0.382223 0.437711
vt 0.409669 0.454078
vt 0.602017 0.270402
vt 0.647654 0.288731
vt 0.621647 0.328288
vt 0.575238 0.325777
vt 0.766915 0.265006
vt 0.824281 0.279397
vt 0.787535 0.288041
vt 0.732229 0.272600
vt 0.089384 0.424468
vt 0.070339 0.442437
vt 0.041219 0.399814
vt 0.067960 0.388478
vt 0.468339 0.440676
vt 0.438573 0.431267
vt 0.445982 0.389037
vt 0.478324 0.391654
vt 0.926752 0.285493
vt 0.955510 0.265547
vt 0.417460 0.419048
vt 0.389804 0.407369
vt 0.396305 0.380708
vt 0.423961 0.384969
vt 0.731550 0.274863
vt 0.784824 0.290320
vt 0.780899 0.292887
vt 0.728952 0.278244
vt 0.376062 0.407209
vt 0.382556 0.375702
vt 0.414004 0.375703
vt 0.441364 0.375703
vt 0.881893 0.301561
vt 0.872036 0.275549
vt 0.884142 0.273650
vt 0.895432 0.300317
vt 0.895866 0.253685
vt 0.914799 0.227016
vt 0.927922 0.228361
vt 0.908635 0.252653
vt 0.654527 0.220125
vt 0.701912 0.245746
vt 0.680902 0.254277
vt 0.638924 0.224185
vt 0.828344 0.303888
vt 0.829529 0.329766
vt 0.792430 0.328634
vt 0.791118 0.309782
vt 0.128260 0.405357
vt 0.140142 0.435662
vt 0.126473 0.437692
vt 0.108433 0.406819
vt 0.387340 0.467151
vt 0.394589 0.526512
vt 0.121932 0.520723
vt 0.395242 0.495764
vt 0.925912 0.193450
vt 0.385979 0.694143
vt 0.123715 0.694143
vt 0.119248 0.664064
vt 0.385979 0.664064
vt 0.108570 0.520639
vt 0.110943 0.693276
vt 0.106485 0.665055
vt 0.989524 0.242359
vt 0.442244 0.693744
vt 0.442244 0.662714
vt 0.489618 0.662236
vt 0.489618 0.694842
vt 0.044633 0.460592
vt 0.012517 0.417478
vt 0.056942 0.666059
vt 0.063480 0.697403
vt 0.012555 0.703513
vt 0.004022 0.669924
vt 0.477788 0.375704
vt 0.503907 0.661162
vt 0.503907 0.695916
vt 0.943070 0.199372
vt 0.398746 0.664994
vt 0.398746 0.693213
vt 0.682838 0.258957
vt 0.683468 0.264709
vt 0.100240 0.378381
vt 0.650747 0.290167
vt 0.636301 0.329000
vt 0.788473 0.310043
vt 0.797034 0.065773
vt 0.791162 0.140381
vt 0.766672 0.138960
vt 0.766672 0.067468
vt 0.808301 0.013624
vt 0.766672 0.005876
vt 0.789601 0.328526
vt 0.787298 0.328435
vt 0.786396 0.309982
vt 0.654983 0.292284
vt 0.640467 0.329192
vt 0.842474 0.033486
vt 0.824571 0.076716
vt 0.813979 0.139567
vt 0.109951 0.460224
vt 0.096902 0.483259
vt 0.074513 0.501324
vt 0.118678 0.375690
vt 0.938100 0.336337
vt 0.900699 0.332740
vt 0.444487 0.256657
vt 0.452438 0.267899
vt 0.428707 0.281284
vt 0.418590 0.273439
vt 0.128868 0.288733
vt 0.115028 0.286947
vt 0.110905 0.260108
vt 0.124249 0.261341
vt 1.013080 0.353475
vt 0.971738 0.346398
vt 0.397050 0.293155
vt 0.409673 0.297328
vt 0.382228 0.313693
vt 0.368132 0.312323
vt 0.595954 0.383567
vt 0.644001 0.370018
vt 0.762295 0.395202
vt 0.725933 0.386916
vt 0.784498 0.371005
vt 0.822602 0.380950
vt 0.089392 0.326912
vt 0.067966 0.362896
vt 0.041230 0.351559
vt 0.070350 0.308943
vt 0.468341 0.310733
vt 0.478324 0.359754
vt 0.445982 0.362371
vt 0.438576 0.320141
vt 0.926281 0.376498
vt 0.955149 0.396902
vt 0.417462 0.332358
vt 0.423961 0.366437
vt 0.396306 0.370696
vt 0.389806 0.344035
vt 0.725216 0.384505
vt 0.722498 0.380878
vt 0.777587 0.365695
vt 0.781721 0.368517
vt 0.376064 0.344194
vt 0.881362 0.359657
vt 0.894959 0.361140
vt 0.883139 0.387835
vt 0.870945 0.385709
vt 0.894661 0.408227
vt 0.907599 0.409479
vt 0.926929 0.434458
vt 0.913510 0.435658
vt 0.642662 0.439550
vt 0.626989 0.434608
vt 0.670669 0.405592
vt 0.692771 0.414872
vt 0.827441 0.355874
vt 0.789876 0.347960
vt 0.128263 0.346026
vt 0.108437 0.344561
vt 0.126479 0.313692
vt 0.140148 0.315723
vt 0.387347 0.284254
vt 0.394600 0.224894
vt 0.395251 0.255641
vt 0.121944 0.230661
vt 0.924547 0.470386
vt 0.621835 0.694143
vt 0.621835 0.664064
vt 0.888565 0.664064
vt 0.884098 0.694143
vt 0.108582 0.230744
vt 0.901328 0.665055
vt 0.896870 0.693276
vt 0.989515 0.420499
vt 0.565569 0.693744
vt 0.518196 0.694842
vt 0.518196 0.662236
vt 0.565569 0.662714
vt 0.012534 0.333895
vt 0.044649 0.290789
vt 0.950870 0.666059
vt 1.003791 0.669925
vt 0.995258 0.703514
vt 0.944332 0.697403
vt 0.942253 0.464346
vt 0.609067 0.693213
vt 0.609067 0.664994
vt 0.672752 0.400938
vt 0.673557 0.394896
vt 0.100241 0.372996
vt 0.647149 0.368998
vt 0.787134 0.347497
vt 0.736310 0.065773
vt 0.742182 0.140381
vt 0.725044 0.013624
vt 0.784957 0.347402
vt 0.651532 0.367463
vt 0.690870 0.033486
vt 0.708773 0.076716
vt 0.719365 0.139567
vt 0.109960 0.291161
vt 0.096914 0.268129
vt 0.074528 0.250064
vn -0.9531 -0.2583 0.1576
vn 0.9670 0.0000 -0.2549
vn 0.7526 -0.5693 0.3309
vn -0.9983 -0.0000 0.0581
vn 0.5867 -0.7190 -0.3727
vn 0.3155 0.7193 0.6189
vn 0.3883 0.8979 0.2075
vn 0.3990 -0.4652 0.7902
vn 0.1436 0.0000 -0.9896
vn 0.1577 0.6671 -0.7281
vn 0.1936 -0.6776 -0.7095
vn -0.9848 0.0000 0.1739
vn 0.1982 -0.8877 -0.4155
vn -0.9976 0.0239 0.0648
vn 0.3476 0.8410 -0.4147
vn 0.6230 0.7046 -0.3398
vn 0.7535 0.5546 0.3530
vn 0.1334 0.9688 0.2091
vn 0.4519 -0.8275 0.3333
vn 0.3203 -0.9473 0.0000
vn 0.8321 -0.5547 0.0000
vn 1.0000 0.0000 0.0000
vn 0.8222 0.5688 0.0219
vn 0.2634 0.9636 -0.0447
vn 0.9959 0.0893 0.0102
vn 0.9670 0.0000 0.2549
vn 0.9662 0.0390 0.2547
vn 0.4637 -0.1317 0.8761
vn 0.4481 0.2637 0.8542
vn 0.8182 0.5748 0.0127
vn 0.2713 0.8804 -0.3890
vn -0.9201 0.0000 0.3916
vn 0.1756 0.8602 -0.4787
vn 0.4068 0.8822 0.2373
vn -0.9950 -0.0649 0.0762
vn -0.9930 0.0780 0.0886
vn 0.1633 -0.3755 -0.9123
vn 0.3120 -0.5756 0.7559
vn 0.7227 -0.6051 -0.3342
vn 0.6997 -0.6220 0.3514
vn 0.2790 0.8101 0.5156
vn 0.2078 0.9244 0.3199
vn 0.0452 0.9594 0.2783
vn 0.0830 0.9021 0.4235
vn 0.0406 0.9607 0.2747
vn 0.1512 0.9264 0.3449
vn 0.0814 0.0000 0.9967
vn -0.5313 0.0000 -0.8472
vn -0.2500 0.1378 -0.9584
vn 0.0452 0.0000 0.9990
vn 0.2908 0.8851 0.3635
vn 0.2910 0.9292 0.2279
vn 0.1020 0.9570 0.2715
vn 0.2114 0.9316 0.2958
vn 0.5385 -0.5581 0.6313
vn 0.3763 -0.4883 -0.7874
vn 0.3086 0.8696 -0.3854
vn 0.5321 0.1730 0.8288
vn 0.5483 -0.0421 0.8352
vn 0.3385 0.0000 -0.9410
vn 0.1654 0.9852 -0.0457
vn 0.1508 -0.9886 0.0000
vn 0.2079 -0.9252 0.3175
vn 0.2185 0.9568 0.1920
vn 0.1937 0.8887 -0.4156
vn 0.4261 -0.8077 -0.4075
vn 0.4130 -0.7170 -0.5616
vn 0.3117 0.7106 -0.6308
vn 0.5085 -0.4760 0.7176
vn 0.3731 0.7120 0.5949
vn 0.9531 -0.2583 0.1576
vn -0.9670 0.0000 -0.2549
vn -0.7526 -0.5693 0.3309
vn 0.9983 -0.0000 0.0581
vn -0.5867 -0.7190 -0.3727
vn -0.3155 0.7193 0.6189
vn -0.3883 0.8979 0.2075
vn -0.3990 -0.4652 0.7902
vn -0.1436 0.0000 -0.9896
vn -0.1577 0.6671 -0.7281
vn -0.1936 -0.6776 -0.7095
vn 0.9848 0.0000 0.1739
vn -0.1982 -0.8877 -0.4155
vn 0.9976 0.0239 0.0648
vn -0.3476 0.8410 -0.4147
vn -0.6230 0.7046 -0.3398
vn -0.7535 0.5546 0.3530
vn -0.1334 0.9688 0.2091
vn -0.4519 -0.8275 0.3333
vn -0.3203 -0.9473 0.0000
vn -0.8321 -0.5547 0.0000
vn -1.0000 0.0000 0.0000
vn -0.8222 0.5688 0.0219
vn -0.2634 0.9636 -0.0447
vn -0.9959 0.0893 0.0102
vn -0.9670 0.0000 0.2549
vn -0.9662 0.0390 0.2547
vn -0.4637 -0.1317 0.8761
vn -0.4481 0.2637 0.8542
vn -0.8182 0.5748 0.0127
vn -0.2713 0.8804 -0.3890
vn 0.9201 0.0000 0.3916
vn -0.1756 0.8602 -0.4787
vn -0.4068 0.8822 0.2373
vn 0.9950 -0.0649 0.0762
vn 0.9930 0.0780 0.0886
vn -0.1633 -0.3755 -0.9123
vn -0.3120 -0.5756 0.7559
vn -0.7227 -0.6051 -0.3342
vn -0.6997 -0.6220 0.3514
vn -0.2790 0.8101 0.5156
vn -0.2078 0.9244 0.3199
vn -0.0452 0.9594 0.2783
vn -0.0830 0.9021 0.4235
vn -0.0406 0.9607 0.2747
vn -0.1512 0.9264 0.3449
vn -0.0814 0.0000 0.9967
vn 0.5313 0.0000 -0.8472
vn 0.2500 0.1378 -0.9584
vn -0.0452 0.0000 0.9990
vn -0.2908 0.8851 0.3635
vn -0.2910 0.9292 0.2279
vn -0.1020 0.9570 0.2715
vn -0.2114 0.9316 0.2958
vn -0.5385 -0.5581 0.6313
vn -0.3763 -0.4883 -0.7874
vn -0.3086 0.8696 -0.3854
vn -0.5321 0.1730 0.8288
vn -0.5483 -0.0421 0.8352
vn -0.3385 0.0000 -0.9410
vn -0.1654 0.9852 -0.0457
vn -0.1508 -0.9886 0.0000
vn -0.2079 -0.9252 0.3175
vn -0.2185 0.9568 0.1920
vn -0.1937 0.8887 -0.4156
vn -0.4261 -0.8077 -0.4075
vn -0.4130 -0.7170 -0.5616
vn -0.3117 0.7106 -0.6308
vn -0.5085 -0.4760 0.7176
vn -0.3731 0.7120 0.5949
usemtl Material
s off
f 117/1/1 78/2/1 17/3/1 33/4/1
f 21/5/2 13/6/2 18/7/2 29/8/2
f 40/9/3 10/10/3 19/11/3 37/12/3
f 106/13/4 84/14/4 16/15/4 26/16/4
f 39/17/5 1/18/5 15/19/5 38/20/5
f 62/21/6 52/22/6 129/23/6 108/24/6
f 32/25/7 4/26/7 42/27/7 43/28/7
f 65/29/8 51/30/8 99/31/8 124/32/8
f 60/33/9 53/34/9 20/35/9 25/36/9
f 63/37/10 54/38/10 16/15/10 33/4/10
f 64/39/11 58/40/11 12/41/11 36/42/11
f 34/43/12 5/44/12 46/45/12 44/46/12
f 47/47/13 74/48/13 12/41/13 58/40/13
f 127/49/14 83/50/14 20/35/14 36/42/14
f 49/51/15 3/52/15 8/53/15 56/54/15
f 31/55/16 14/56/16 9/57/16 35/58/16
f 24/59/17 11/60/17 41/61/17 28/62/17
f 50/63/18 77/64/18 131/65/18 55/66/18
f 48/67/19 2/68/19 7/69/19 57/70/19
f 47/47/20 1/18/20 2/68/20 48/67/20
f 39/71/21 40/9/21 2/68/21 1/18/21
f 21/72/22 23/73/22 10/10/22 13/74/22
f 31/55/23 32/25/23 11/60/23 14/56/23
f 49/51/24 50/63/24 4/26/24 3/52/24
f 14/56/25 11/60/25 24/59/25 22/75/25
f 22/76/22 24/77/22 23/78/22 21/79/22
f 10/10/26 23/73/26 27/80/26 19/11/26
f 23/78/27 24/77/27 28/81/27 27/82/27
f 54/38/9 59/83/9 26/16/9 16/15/9
f 59/84/9 60/85/9 25/86/9 26/87/9
f 51/30/28 61/88/28 107/89/28 99/31/28
f 61/90/29 62/91/29 108/92/29 107/93/29
f 83/50/4 105/94/4 25/36/4 20/35/4
f 105/95/4 106/96/4 26/87/4 25/86/4
f 14/56/2 22/75/2 30/97/2 9/57/2
f 22/76/2 21/79/2 29/98/2 30/99/2
f 3/52/30 4/26/30 32/25/30 31/55/30
f 3/52/31 31/55/31 35/58/31 8/53/31
f 6/100/32 34/43/32 44/46/32 45/101/32
f 56/54/33 63/37/33 33/4/33 17/3/33
f 11/60/34 32/25/34 43/28/34 41/61/34
f 84/14/35 117/1/35 33/4/35 16/15/35
f 13/74/21 10/10/21 40/9/21 39/71/21
f 74/48/36 127/49/36 36/42/36 12/41/36
f 53/34/37 64/39/37 36/42/37 20/35/37
f 57/70/38 65/29/38 124/32/38 81/102/38
f 13/6/39 39/17/39 38/20/39 18/7/39
f 2/68/40 40/9/40 37/12/40 7/69/40
f 66/103/41 93/104/41 129/23/41 52/22/41
f 67/105/42 5/44/42 42/27/42 55/66/42
f 5/44/43 34/43/43 43/28/43 42/27/43
f 34/43/44 6/100/44 41/61/44 43/28/44
f 68/106/45 70/107/45 138/108/45 134/109/45
f 69/110/46 68/106/46 134/109/46 136/111/46
f 67/105/47 94/112/47 138/113/47 70/114/47
f 66/103/48 6/100/48 45/101/48 69/115/48
f 93/104/49 66/103/49 69/115/49 136/116/49
f 5/44/50 67/105/50 70/114/50 46/45/50
f 45/117/51 44/118/51 68/106/51 69/110/51
f 44/118/52 46/119/52 70/107/52 68/106/52
f 94/112/53 67/105/53 55/66/53 131/65/53
f 6/100/54 66/103/54 52/22/54 41/61/54
f 7/69/55 37/120/55 65/29/55 57/70/55
f 18/7/56 38/20/56 64/39/56 53/34/56
f 8/53/57 35/58/57 63/37/57 56/54/57
f 27/82/58 28/81/58 62/91/58 61/90/58
f 19/121/59 27/122/59 61/88/59 51/30/59
f 30/99/60 29/98/60 60/85/60 59/84/60
f 9/57/60 30/97/60 59/83/60 54/38/60
f 78/2/61 77/64/61 50/63/61 49/51/61
f 74/48/62 47/47/62 48/67/62 73/123/62
f 73/123/63 48/67/63 57/70/63 81/102/63
f 4/26/64 50/63/64 55/66/64 42/27/64
f 78/2/65 49/51/65 56/54/65 17/3/65
f 1/18/66 47/47/66 58/40/66 15/19/66
f 38/20/67 15/19/67 58/40/67 64/39/67
f 35/58/68 9/57/68 54/38/68 63/37/68
f 29/8/60 18/7/60 53/34/60 60/33/60
f 37/120/69 19/121/69 51/30/69 65/29/69
f 28/62/70 41/61/70 52/22/70 62/21/70
f 117/1/71 118/124/71 96/125/71 78/2/71
f 101/126/72 113/127/72 97/128/72 90/129/72
f 126/130/73 122/131/73 98/132/73 87/133/73
f 106/13/74 110/134/74 95/135/74 84/14/74
f 125/136/75 123/137/75 92/138/75 71/139/75
f 154/140/76 108/24/76 129/23/76 144/141/76
f 116/142/77 132/143/77 130/144/77 76/145/77
f 157/146/78 124/147/78 99/148/78 143/149/78
f 152/150/79 109/151/79 100/152/79 145/153/79
f 155/154/80 118/124/80 95/135/80 146/155/80
f 156/156/81 121/157/81 89/158/81 150/159/81
f 119/160/82 133/161/82 137/162/82 79/163/82
f 139/164/83 150/159/83 89/158/83 74/48/83
f 127/49/84 121/157/84 100/152/84 83/50/84
f 141/165/85 148/166/85 85/167/85 75/168/85
f 115/169/86 120/170/86 86/171/86 91/172/86
f 104/173/87 112/174/87 128/175/87 88/176/87
f 142/177/88 147/178/88 131/65/88 77/64/88
f 140/179/89 149/180/89 82/181/89 72/182/89
f 139/164/90 140/179/90 72/182/90 71/139/90
f 125/183/91 71/139/91 72/182/91 126/130/91
f 101/184/92 90/185/92 87/133/92 103/186/92
f 115/169/93 91/172/93 88/176/93 116/142/93
f 141/165/94 75/168/94 76/145/94 142/177/94
f 91/172/95 102/187/95 104/173/95 88/176/95
f 102/188/92 101/189/92 103/190/92 104/191/92
f 87/133/96 98/132/96 111/192/96 103/186/96
f 103/190/97 111/193/97 112/194/97 104/191/97
f 146/155/79 95/135/79 110/134/79 151/195/79
f 151/196/79 110/197/79 109/198/79 152/199/79
f 143/149/98 99/148/98 107/200/98 153/201/98
f 153/202/99 107/203/99 108/204/99 154/205/99
f 83/50/74 100/152/74 109/151/74 105/94/74
f 105/95/74 109/198/74 110/197/74 106/96/74
f 91/172/72 86/171/72 114/206/72 102/187/72
f 102/188/72 114/207/72 113/208/72 101/189/72
f 75/168/100 115/169/100 116/142/100 76/145/100
f 75/168/101 85/167/101 120/170/101 115/169/101
f 80/209/102 135/210/102 133/161/102 119/160/102
f 148/166/103 96/125/103 118/124/103 155/154/103
f 88/176/104 128/175/104 132/143/104 116/142/104
f 84/14/105 95/135/105 118/124/105 117/1/105
f 90/185/91 125/183/91 126/130/91 87/133/91
f 74/48/106 89/158/106 121/157/106 127/49/106
f 145/153/107 100/152/107 121/157/107 156/156/107
f 149/180/108 81/211/108 124/147/108 157/146/108
f 90/129/109 97/128/109 123/137/109 125/136/109
f 72/182/110 82/181/110 122/131/110 126/130/110
f 158/212/111 144/141/111 129/23/111 93/104/111
f 159/213/112 147/178/112 130/144/112 79/163/112
f 79/163/113 130/144/113 132/143/113 119/160/113
f 119/160/114 132/143/114 128/175/114 80/209/114
f 160/214/115 134/109/115 138/108/115 162/215/115
f 161/216/116 136/111/116 134/109/116 160/214/116
f 159/213/117 162/217/117 138/113/117 94/112/117
f 158/212/118 161/218/118 135/210/118 80/209/118
f 93/104/119 136/116/119 161/218/119 158/212/119
f 79/163/120 137/162/120 162/217/120 159/213/120
f 135/219/121 161/216/121 160/214/121 133/220/121
f 133/220/122 160/214/122 162/215/122 137/221/122
f 94/112/123 131/65/123 147/178/123 159/213/123
f 80/209/124 128/175/124 144/141/124 158/212/124
f 82/181/125 149/180/125 157/146/125 122/222/125
f 97/128/126 145/153/126 156/156/126 123/137/126
f 85/167/127 148/166/127 155/154/127 120/170/127
f 111/193/128 153/202/128 154/205/128 112/194/128
f 98/223/129 143/149/129 153/201/129 111/224/129
f 114/207/130 151/196/130 152/199/130 113/208/130
f 86/171/130 146/155/130 151/195/130 114/206/130
f 78/2/131 141/165/131 142/177/131 77/64/131
f 74/48/132 73/123/132 140/179/132 139/164/132
f 73/123/133 81/211/133 149/180/133 140/179/133
f 76/145/134 130/144/134 147/178/134 142/177/134
f 78/2/135 96/125/135 148/166/135 141/165/135
f 71/139/136 92/138/136 150/159/136 139/164/136
f 123/137/137 156/156/137 150/159/137 92/138/137
f 120/170/138 155/154/138 146/155/138 86/171/138
f 113/127/130 152/150/130 145/153/130 97/128/130
f 122/222/139 157/146/139 143/149/139 98/223/139
f 112/174/140 154/140/140 144/141/140 128/175/140
